<?xml version="1.0" standalone="no"?>
<!DOCTYPE svg PUBLIC "-//W3C//DTD SVG 1.1//EN" "http://www.w3.org/Graphics/SVG/1.1/DTD/svg11.dtd" >
<svg xmlns="http://www.w3.org/2000/svg">
<metadata>Generated by IcoMoon</metadata>
<defs>
<font id="iconfont" horiz-adv-x="1024">
<font-face units-per-em="1024" ascent="960" descent="-64" />
<missing-glyph horiz-adv-x="1024" />
<glyph unicode="&#x20;" horiz-adv-x="512" d="" />
<glyph unicode="&#xd7;" glyph-name="16px13" d="M631.467 268.8l-298.667 298.667 59.733 59.733 302.933-302.933-64-55.467zM392.533 268.8l-59.733 59.733 302.933 302.933 59.733-59.733-302.933-302.933z" />
<glyph unicode="&#x221a;" glyph-name="16px14" d="M290.133 486.4l179.2-179.2-59.733-102.4-179.2 221.867 59.733 59.733zM733.867 691.2l59.733-59.733-384-426.667-59.733 102.4 384 384z" />
<glyph unicode="&#xe600;" glyph-name="16px11" d="M518.4 256l-262.4-256-51.2 256h-140.8v640h896v-640h-441.6zM320 640h-128v-128h128v128zM576 640h-128v-128h128v128zM832 640h-128v-128h128v128z" />
<glyph unicode="&#xe601;" glyph-name="16px12" d="M622.933 418.133c-55.467-38.4-140.8-98.133-192-132.267-21.333-17.067-42.667 0-42.667 21.333 0 76.8 0 209.067 0 285.867 0 55.467 64 8.533 46.933 17.067 51.2-34.133 136.533-93.867 192-128 17.067-17.067 17.067-46.933-4.267-64z" />
<glyph unicode="&#xe602;" glyph-name="242" d="M716.8 183.467l-469.333 469.333 59.733 59.733 473.6-473.6-64-55.467zM307.2 183.467l-59.733 59.733 469.333 469.333 59.733-59.733-469.333-469.333z" />
<glyph unicode="&#xe603;" glyph-name="2-16px_2" d="M812.8 755.2c-6.4 19.2-12.8 25.6-12.8 38.4-25.6 64-70.4 64-147.2 64h-6.4c-32 0-70.4 0-108.8 12.8-51.2 0-102.4 12.8-153.6 12.8-25.6 0-44.8 0-57.6 0-38.4-12.8-70.4-32-89.6-57.6s-25.6-51.2-25.6-70.4c-25.6-25.6-44.8-51.2-44.8-76.8 0-19.2 6.4-38.4 12.8-51.2-25.6-32-38.4-57.6-32-89.6 0-12.8 6.4-25.6 6.4-32-12.8-6.4-25.6-32-25.6-64 0-25.6 6.4-44.8 25.6-64 38.4-44.8 102.4-44.8 166.4-44.8 6.4 0 19.2 0 25.6 0 32 0 51.2-6.4 51.2-19.2 6.4-12.8 0-38.4-25.6-70.4-51.2-51.2-76.8-115.2-64-166.4 0-38.4 19.2-64 44.8-83.2 12.8-6.4 25.6-12.8 38.4-12.8 38.4 0 57.6 38.4 76.8 83.2 12.8 19.2 25.6 44.8 44.8 70.4 25.6 44.8 70.4 76.8 108.8 108.8s76.8 64 102.4 96c44.8 57.6 115.2 89.6 121.6 89.6v0c89.6 57.6 12.8 217.6-32 326.4z" />
<glyph unicode="&#xe604;" glyph-name="24px" d="M512 832c-211.2 0-384-172.8-384-384s172.8-384 384-384c211.2 0 384 172.8 384 384s-169.6 384-384 384zM272 611.2l38.4 6.4c6.4 0 9.6 3.2 12.8 9.6l16 35.2c6.4 12.8 22.4 12.8 28.8 0l16-35.2c3.2-3.2 6.4-6.4 12.8-9.6l38.4-6.4c12.8-3.2 19.2-19.2 9.6-25.6l-28.8-28.8c-3.2-3.2-6.4-9.6-3.2-12.8l6.4-38.4c3.2-12.8-12.8-22.4-22.4-16l-35.2 19.2c-3.2 3.2-9.6 3.2-16 0l-35.2-19.2c-12.8-6.4-25.6 3.2-22.4 16l9.6 38.4c0 6.4 0 9.6-3.2 12.8l-28.8 28.8c-9.6 9.6-6.4 25.6 6.4 25.6zM512 163.2c-134.4 0-243.2 124.8-243.2 252.8 204.8 0 300.8 0 486.4 0 0-128-108.8-252.8-243.2-252.8zM764.8 585.6l-28.8-28.8c-3.2-3.2-6.4-9.6-3.2-12.8l6.4-38.4c3.2-12.8-12.8-22.4-22.4-16l-35.2 19.2c-3.2 3.2-9.6 3.2-16 0l-35.2-19.2c-12.8-6.4-25.6 3.2-22.4 16l6.4 38.4c0 6.4 0 9.6-3.2 12.8l-28.8 28.8c-9.6 9.6-3.2 25.6 9.6 25.6l38.4 6.4c6.4 0 9.6 3.2 12.8 9.6l16 35.2c6.4 12.8 22.4 12.8 28.8 0l16-35.2c3.2-3.2 6.4-6.4 12.8-9.6l38.4-6.4c12.8 0 16-16 9.6-25.6z" />
<glyph unicode="&#xe605;" glyph-name="16px" d="M512-64c-281.6 0-512 230.4-512 512s230.4 512 512 512c281.6 0 512-230.4 512-512s-230.4-512-512-512zM512 896c-249.6 0-448-198.4-448-448s198.4-448 448-448 448 198.4 448 448-198.4 448-448 448zM691.2 313.6l-44.8-44.8-134.4 134.4-134.4-134.4-44.8 44.8 134.4 134.4-134.4 140.8 44.8 44.8 134.4-140.8 134.4 134.4 44.8-44.8-134.4-134.4 134.4-134.4z" />
<glyph unicode="&#xe606;" glyph-name="24px2" d="M512 128c-176 0-320 144-320 320s144 320 320 320 320-144 320-320-144-320-320-320zM512 704c-140.8 0-256-115.2-256-256s115.2-256 256-256 256 115.2 256 256-115.2 256-256 256zM640 416h-128c-19.2 0-32 12.8-32 32v160c0 19.2 12.8 32 32 32s32-12.8 32-32v-128h96c19.2 0 32-12.8 32-32s-12.8-32-32-32z" />
<glyph unicode="&#xe607;" glyph-name="16px5" d="M998.4 576l-281.6-211.2c-12.8 0-12.8 0-12.8 6.4v115.2c-83.2 0-358.4-51.2-435.2-160 0 224 332.8 358.4 435.2 358.4v102.4c0 6.4 6.4 12.8 12.8 6.4l281.6-211.2c0 6.4 0 0 0-6.4zM896 332.8v-140.8h-768v454.4h172.8l128 96h-313.6c-51.2 0-96-44.8-96-96v-460.8c0-51.2 44.8-96 96-96h774.4c51.2 0 96 44.8 96 96v217.6l-89.6-70.4z" />
<glyph unicode="&#xe608;" glyph-name="16px7" d="M674.133 588.8c8.533 0 21.333 0 29.867 0-29.867 128-166.4 226.133-324.267 226.133-179.2 0-324.267-119.467-324.267-273.067 0-89.6 46.933-162.133 128-217.6l-34.133-98.133 110.933 55.467c38.4-8.533 72.533-17.067 110.933-17.067 8.533 0 21.333 0 29.867 0-4.267 21.333-8.533 42.667-8.533 68.267 8.533 140.8 128 256 281.6 256zM499.2 674.133c25.6 0 38.4-17.067 38.4-38.4 0-25.6-17.067-38.4-38.4-38.4-25.6 0-46.933 17.067-46.933 38.4 0 25.6 21.333 38.4 46.933 38.4zM273.067 597.333c-25.6 0-46.933 17.067-46.933 38.4 0 25.6 25.6 38.4 46.933 38.4 25.6 0 42.667-12.8 42.667-38.4s-17.067-38.4-42.667-38.4zM968.533 337.067c0 128-128 234.667-273.067 234.667-153.6 0-273.067-106.667-273.067-234.667s119.467-234.667 273.067-234.667c34.133 0 64 8.533 98.133 17.067l89.6-46.933-29.867 81.067c64 46.933 115.2 110.933 115.2 183.467zM605.867 379.733c-17.067 0-34.133 17.067-34.133 34.133s17.067 34.133 34.133 34.133c25.6 0 38.4-17.067 38.4-34.133 0-21.333-17.067-34.133-38.4-34.133zM780.8 379.733c-17.067 0-34.133 17.067-34.133 34.133s17.067 34.133 34.133 34.133c25.6 0 38.4-17.067 38.4-34.133 4.267-21.333-12.8-34.133-38.4-34.133z" />
<glyph unicode="&#xe609;" glyph-name="16px15" d="M725.333 405.333h-426.667v85.333h426.667v-85.333zM554.667 661.333v-426.667h-85.333v426.667h85.333z" />
<glyph unicode="&#xe60a;" glyph-name="24px11" d="M981.333 618.667h-85.333l-106.667-298.667h-465.067l-119.467 384h-119.467v-85.333h55.467l119.467-384h593.067zM426.667 106.667c0-47.128-38.205-85.333-85.333-85.333s-85.333 38.205-85.333 85.333c0 47.128 38.205 85.333 85.333 85.333s85.333-38.205 85.333-85.333zM853.333 106.667c0-47.128-38.205-85.333-85.333-85.333s-85.333 38.205-85.333 85.333c0 47.128 38.205 85.333 85.333 85.333s85.333-38.205 85.333-85.333zM128 661.333c0-23.564-19.103-42.667-42.667-42.667s-42.667 19.103-42.667 42.667c0 23.564 19.103 42.667 42.667 42.667s42.667-19.103 42.667-42.667zM384 704h345.6v-85.333h-345.6v85.333zM512 832h85.333v-341.333h-85.333v341.333z" />
<glyph unicode="&#xe60b;" glyph-name="16px16" d="M725.333 405.333h-426.667v85.333h426.667v-85.333z" />
<glyph unicode="&#xe60c;" glyph-name="24px12" d="M981.333 618.667h-85.333l-106.667-298.667h-465.067l-119.467 384h-119.467v-85.333h55.467l119.467-384h593.067zM426.667 106.667c0-47.128-38.205-85.333-85.333-85.333s-85.333 38.205-85.333 85.333c0 47.128 38.205 85.333 85.333 85.333s85.333-38.205 85.333-85.333zM853.333 106.667c0-47.128-38.205-85.333-85.333-85.333s-85.333 38.205-85.333 85.333c0 47.128 38.205 85.333 85.333 85.333s85.333-38.205 85.333-85.333zM384 533.333h533.333v85.333h-558.933zM128 661.333c0-23.564-19.103-42.667-42.667-42.667s-42.667 19.103-42.667 42.667c0 23.564 19.103 42.667 42.667 42.667s42.667-19.103 42.667-42.667z" />
<glyph unicode="&#xe60d;" glyph-name="24px13" d="M981.333 618.667h-85.333l-106.667-298.667h-465.067l-119.467 384h-119.467v-85.333h55.467l119.467-384h593.067zM426.667 106.667c0-47.128-38.205-85.333-85.333-85.333s-85.333 38.205-85.333 85.333c0 47.128 38.205 85.333 85.333 85.333s85.333-38.205 85.333-85.333zM853.333 106.667c0-47.128-38.205-85.333-85.333-85.333s-85.333 38.205-85.333 85.333c0 47.128 38.205 85.333 85.333 85.333s85.333-38.205 85.333-85.333zM128 661.333c0-23.564-19.103-42.667-42.667-42.667s-42.667 19.103-42.667 42.667c0 23.564 19.103 42.667 42.667 42.667s42.667-19.103 42.667-42.667zM303.724 615.707l102.577 102.577 102.577-102.577-102.577-102.577-102.577 102.577zM606.824 615.29l102.577 102.577 102.577-102.577-102.577-102.577-102.577 102.577zM452.463 767.051l102.577 102.577 102.577-102.577-102.577-102.577-102.577 102.577zM452.050 463.946l102.577 102.577 102.577-102.577-102.577-102.577-102.577 102.577z" />
<glyph unicode="&#xe60e;" glyph-name="24px3" d="M512 832c-211.2 0-384-172.8-384-384s172.8-384 384-384c211.2 0 384 172.8 384 384s-169.6 384-384 384zM624 614.4c22.4 0 41.6-22.4 41.6-48s-19.2-48-41.6-48c-22.4 0-41.6 22.4-41.6 48 0 28.8 19.2 48 41.6 48zM396.8 614.4c22.4 0 41.6-22.4 41.6-48s-19.2-48-41.6-48c-22.4 0-41.6 22.4-41.6 48 0 28.8 19.2 48 41.6 48zM736 313.6c-3.2-6.4-48-121.6-217.6-121.6-166.4 0-227.2 115.2-227.2 118.4-6.4 12.8 0 28.8 12.8 35.2s28.8 0 35.2-12.8c0 0 3.2-6.4 6.4-12.8 16-25.6 67.2-80 172.8-80s150.4 57.6 163.2 80c3.2 6.4 3.2 9.6 3.2 9.6 6.4 12.8 19.2 19.2 35.2 16 12.8-6.4 19.2-19.2 16-32z" />
<glyph unicode="&#xe60f;" glyph-name="16px2" d="M844.8 448c0 0 0 0 0 0-6.4 0-76.8 32-121.6 89.6-25.6 32-64 64-102.4 96s-83.2 64-108.8 108.8c-19.2 25.6-32 51.2-44.8 70.4-19.2 44.8-38.4 83.2-76.8 83.2-12.8 0-25.6-6.4-38.4-12.8-25.6-19.2-44.8-44.8-44.8-83.2-12.8-51.2 12.8-115.2 64-166.4 25.6-32 32-57.6 25.6-70.4 0-12.8-19.2-19.2-51.2-19.2-6.4 0-19.2 0-25.6 0-64 0-128 0-166.4-38.4-19.2-19.2-25.6-38.4-25.6-64 0-32 12.8-57.6 25.6-70.4 0-6.4-6.4-19.2-6.4-32-6.4-32 6.4-57.6 32-89.6-6.4-12.8-12.8-32-12.8-51.2 0-25.6 19.2-51.2 44.8-70.4 0-19.2 6.4-51.2 25.6-76.8s51.2-44.8 89.6-51.2c12.8 0 32 0 57.6 0 51.2 0 102.4 6.4 153.6 12.8 38.4 6.4 76.8 12.8 108.8 12.8h6.4c76.8 0 121.6 0 147.2 64 0 6.4 6.4 19.2 12.8 38.4 44.8 102.4 121.6 268.8 32 320z" />
<glyph unicode="&#xe610;" glyph-name="16px3" d="M512 896c-249.6 0-448-166.4-448-371.2 0-185.6 160-339.2 384-364.8l-19.2-134.4c0-12.8 6.4-19.2 12.8-25.6 6.4 0 6.4 0 12.8 0s12.8 0 19.2 6.4l172.8 166.4c192 44.8 320 192 320 352-6.4 204.8-204.8 371.2-454.4 371.2zM320 448c-38.4 0-64 25.6-64 64s25.6 64 64 64 64-25.6 64-64-25.6-64-64-64zM512 448c-38.4 0-64 25.6-64 64s25.6 64 64 64 64-25.6 64-64-25.6-64-64-64zM704 448c-38.4 0-64 25.6-64 64s25.6 64 64 64 64-25.6 64-64-25.6-64-64-64z" />
<glyph unicode="&#xe611;" glyph-name="16px17" d="M345.6 288l256 236.8-89.6 83.2-256-236.8 89.6-83.2zM678.4 288l89.6 83.2-256 236.8-89.6-83.2 256-236.8z" />
<glyph unicode="&#xe612;" glyph-name="16px18" d="M204.8 256l384 377.6-76.8 70.4-384-377.6 76.8-70.4zM819.2 256l76.8 70.4-384 377.6-76.8-76.8 384-371.2z" />
<glyph unicode="&#xe613;" glyph-name="24px4" d="M512 832c-211.2 0-384-172.8-384-384s172.8-384 384-384c211.2 0 384 172.8 384 384s-169.6 384-384 384zM646.4 601.6l67.2-67.2c12.8-12.8 12.8-32 0-44.8s-32-12.8-44.8 0l-67.2 67.2c-12.8 12.8-12.8 32 0 44.8 9.6 9.6 32 9.6 44.8 0zM313.6 534.4l67.2 67.2c12.8 12.8 32 12.8 44.8 0s12.8-32 0-44.8l-67.2-67.2c-12.8-12.8-32-12.8-44.8 0-12.8 9.6-12.8 32 0 44.8zM720 256c-12.8-6.4-28.8 3.2-35.2 16 0 0-3.2 3.2-3.2 9.6-12.8 22.4-54.4 80-163.2 80-105.6 0-156.8-54.4-172.8-80-3.2-6.4-6.4-9.6-6.4-12.8-6.4-12.8-22.4-19.2-35.2-12.8s-19.2 22.4-12.8 35.2c3.2 6.4 60.8 118.4 227.2 118.4 169.6 0 214.4-118.4 217.6-121.6 3.2-12.8-3.2-28.8-16-32z" />
<glyph unicode="&#xe614;" glyph-name="24px5" d="M512 185.6c-28.8 12.8-320 134.4-320 345.6 0 92.8 48 195.2 160 201.6 112 9.6 160-64 160-64s64 73.6 160 64c112-12.8 160-112 160-201.6 0-188.8-272-313.6-320-345.6zM672 672c-92.8 22.4-134.4-96-160-96-28.8 0-35.2 112-160 96-76.8-9.6-96-92.8-96-150.4 0-118.4 179.2-220.8 256-262.4 80 41.6 256 137.6 256 262.4 0 51.2-19.2 131.2-96 150.4z" />
<glyph unicode="&#xe615;" glyph-name="32" d="M512-64c-281.6 0-512 230.4-512 512s230.4 512 512 512 512-230.4 512-512-230.4-512-512-512zM512 896c-246.4 0-448-201.6-448-448s201.6-448 448-448 448 201.6 448 448-201.6 448-448 448zM537.6 233.6c-12.8-12.8-35.2-12.8-48 0s-12.8 35.2 0 48l134.4 134.4h-304c-19.2 0-32 12.8-32 32s12.8 32 32 32h307.2l-131.2 131.2c-12.8 12.8-12.8 32 0 44.8s32 12.8 44.8 0l182.4-182.4c3.2-3.2 3.2-3.2 3.2-6.4 0 0 0 0 0 0 12.8-12.8 12.8-35.2 0-48l-188.8-185.6z" />
<glyph unicode="&#xe616;" glyph-name="24px7" d="M827.733 81.067c-25.6-21.333-68.267-17.067-89.6 8.533l-115.2 145.067c-51.2-29.867-115.2-46.933-179.2-38.4-162.133 17.067-285.867 162.133-268.8 328.533 21.333 162.133 166.4 281.6 328.533 264.533s285.867-162.133 268.8-328.533c-4.267-51.2-25.6-98.133-55.467-140.8l119.467-153.6c21.333-25.6 17.067-64-8.533-85.333zM494.933 708.267c-115.2 12.8-221.867-72.533-234.667-192-12.8-115.2 72.533-221.867 192-234.667 64-4.267 123.733 17.067 166.4 55.467 0 0 0 0 0 0s0 0 0 0c34.133 34.133 59.733 81.067 64 132.267 17.067 119.467-68.267 226.133-187.733 238.933z" />
<glyph unicode="&#xe617;" glyph-name="16px6" d="M960 448c0 249.6-198.4 448-448 448s-448-204.8-448-448c0-249.6 198.4-448 448-448 83.2 0 166.4 25.6 236.8 70.4l211.2-70.4-70.4 211.2c44.8 70.4 70.4 153.6 70.4 236.8zM537.6 192h-64v64h70.4v-64zM652.8 512c-6.4-12.8-25.6-32-44.8-57.6-25.6-19.2-38.4-38.4-44.8-44.8-12.8-12.8-12.8-19.2-19.2-38.4-6.4-12.8-6.4-51.2-6.4-51.2h-64c0 0 0 44.8 6.4 64 6.4 12.8 12.8 32 19.2 38.4 12.8 12.8 19.2 32 44.8 57.6 19.2 19.2 25.6 32 32 38.4 6.4 12.8 12.8 19.2 12.8 38.4s-12.8 83.2-83.2 83.2c-64 0-76.8-64-76.8-64h-76.8c0 0 0 25.6 19.2 57.6 12.8 12.8 19.2 25.6 32 38.4s32 19.2 51.2 25.6c19.2 6.4 38.4 12.8 64 12.8 44.8 0 76.8-12.8 108.8-38.4 25.6-25.6 44.8-57.6 44.8-102.4-6.4-19.2-6.4-38.4-19.2-57.6z" />
<glyph unicode="&#xe618;" glyph-name="-11" d="M512-64c-281.6 0-512 230.4-512 512s230.4 512 512 512 512-230.4 512-512-230.4-512-512-512zM512 896c-249.6 0-448-198.4-448-448s198.4-448 448-448 448 198.4 448 448-198.4 448-448 448zM300.8 435.2l44.8 44.8 89.6-89.6 243.2 243.2 44.8-44.8-288-352-134.4 198.4z" />
<glyph unicode="&#xe619;" glyph-name="24px9" d="M512 832c-211.2 0-384-172.8-384-384s172.8-384 384-384 384 172.8 384 384c0 211.2-169.6 384-384 384zM582.4 601.6c3.2 38.4 28.8 67.2 57.6 64s48-35.2 44.8-73.6c-3.2-38.4-28.8-67.2-57.6-64-25.6 3.2-48 38.4-44.8 73.6zM387.2 668.8c28.8 3.2 54.4-25.6 57.6-64s-16-70.4-44.8-73.6c-28.8-3.2-54.4 25.6-57.6 64-6.4 38.4 16 70.4 44.8 73.6zM512 163.2c-134.4 0-243.2 112-243.2 252.8 204.8 0 300.8 0 486.4 0 0-140.8-108.8-252.8-243.2-252.8z" />
<glyph unicode="&#xe61a;" glyph-name="16px19" d="M256 524.8l256-236.8 89.6 83.2-256 236.8-89.6-83.2zM422.4 371.2l89.6-83.2 256 236.8-89.6 83.2-256-236.8z" />
<glyph unicode="&#xe61b;" glyph-name="16px20" d="M128 563.2l384-371.2 76.8 76.8-384 371.2-76.8-76.8zM435.2 262.4l76.8-70.4 384 377.6-76.8 70.4-384-377.6z" />
<glyph unicode="&#xe61c;" glyph-name="24px14" d="M665.6 533.333l-213.333-200.533 59.733-55.467 213.333 200.533-59.733 55.467zM358.4 533.333l-59.733-55.467 213.333-200.533 59.733 55.467-213.333 200.533z" />
<glyph unicode="&#xe61d;" glyph-name="uniE628" d="M534.4 857.6l112-227.2c3.2-6.4 9.6-9.6 16-12.8l252.8-35.2c19.2-3.2 25.6-25.6 12.8-38.4l-182.4-179.2c-6.4-6.4-6.4-12.8-6.4-19.2l41.6-249.6c3.2-19.2-16-32-32-22.4l-224 118.4c-6.4 3.2-12.8 3.2-19.2 0l-224-118.4c-16-9.6-35.2 6.4-32 22.4l41.6 249.6c0 6.4 0 12.8-6.4 19.2l-182.4 179.2c-12.8 9.6-6.4 32 9.6 35.2l252.8 35.2c6.4 0 12.8 6.4 16 12.8l112 227.2c9.6 19.2 32 19.2 41.6 3.2z" />
<glyph unicode="&#xe61e;" glyph-name="16px21" d="M512 106.667c-187.733 0-341.333 153.6-341.333 341.333s153.6 341.333 341.333 341.333 341.333-153.6 341.333-341.333-153.6-341.333-341.333-341.333zM512 192c81.067 0 149.333 38.4 196.267 93.867l-435.2 251.733c-8.533-29.867-17.067-59.733-17.067-89.6 0-140.8 115.2-256 256-256zM512 704c-81.067 0-149.333-38.4-196.267-93.867l435.2-251.733c8.533 29.867 17.067 55.467 17.067 89.6 0 140.8-115.2 256-256 256z" />
<glyph unicode="&#xe61f;" glyph-name="24px10" d="M512 832c-211.2 0-384-172.8-384-384s172.8-384 384-384c211.2 0 384 172.8 384 384s-169.6 384-384 384zM396.8 614.4c22.4 0 41.6-22.4 41.6-48s-19.2-48-41.6-48c-22.4 0-41.6 22.4-41.6 48 0 28.8 19.2 48 41.6 48zM630.4 288h-236.8c-16 0-32 16-32 32s12.8 32 32 32h236.8c16 0 32-16 32-32s-12.8-32-32-32zM624 521.6c-22.4 0-41.6 22.4-41.6 48s19.2 48 41.6 48c22.4 0 41.6-22.4 41.6-48 3.2-28.8-16-48-41.6-48z" />
<glyph unicode="&#xe620;" glyph-name="16px9" d="M435.2 614.4c0 160 0 275.2 0 345.6h-396.8v-409.6h204.8c-6.4-224-89.6-390.4-243.2-499.2l128-102.4c204.8 140.8 307.2 364.8 307.2 665.6v0zM1024 614.4c0 160 0 275.2 0 345.6h-409.6v-409.6h217.6c-6.4-224-89.6-390.4-243.2-499.2l115.2-102.4c217.6 140.8 320 364.8 320 665.6v0z" />
<glyph unicode="&#xe621;" glyph-name="16px22" d="M352 614.4l236.8-256 83.2 89.6-236.8 256-83.2-89.6zM352 281.6l83.2-89.6 236.8 256-83.2 89.6-236.8-256z" />
<glyph unicode="&#xe622;" glyph-name="64px" d="M350.4 14.4l433.6 433.6-22.4 22.4-433.6-433.6 22.4-22.4zM761.6 425.6l22.4 22.4-433.6 433.6-22.4-22.4 433.6-433.6z" />
<glyph unicode="&#xe623;" glyph-name="16px23" d="M320 755.2l377.6-384 70.4 76.8-371.2 384-76.8-76.8zM320 140.8l76.8-76.8 371.2 384-76.8 76.8-371.2-384z" />
<glyph unicode="&#xe624;" glyph-name="48px" d="M366.933 83.2l362.667 364.8-29.867 29.867-362.667-364.8 29.867-29.867zM699.733 418.133l29.867 29.867-362.667 364.8-29.867-29.867 362.667-364.8z" />
<glyph unicode="&#xe625;" glyph-name="16px10" d="M588.8 281.6c0-160 0-275.2 0-345.6h396.8v409.6h-204.8c6.4 224 89.6 390.4 243.2 499.2l-128 102.4c-204.8-140.8-307.2-364.8-307.2-665.6v0zM0 281.6c0-160 0-275.2 0-345.6h409.6v409.6h-217.6c6.4 224 89.6 390.4 243.2 499.2l-115.2 102.4c-211.2-140.8-320-364.8-320-665.6v0z" />
<glyph unicode="&#xe626;" glyph-name="16px24" d="M588.8 704l-236.8-256 83.2-89.6 236.8 256-83.2 89.6zM435.2 537.6l-83.2-89.6 236.8-256 83.2 89.6-236.8 256z" />
<glyph unicode="&#xe627;" glyph-name="64px2" d="M690.424 49.261l-420.461 420.461-21.721-21.721 420.461-420.461 21.721 21.721zM690.424 846.739l-21.721 21.721-420.461-420.461 21.721-21.721 420.461 420.461z" />
<glyph unicode="&#xe628;" glyph-name="16px25" d="M633.6 832l-377.6-384 76.8-76.8 377.6 384-76.8 76.8zM332.8 524.8l-76.8-76.8 377.6-384 76.8 76.8-377.6 384z" />
<glyph unicode="&#xe629;" glyph-name="48px2" d="M701.867 113.067l-364.8 364.8-29.867-29.867 364.8-364.8 29.867 29.867zM701.867 782.933l-29.867 29.867-364.8-364.8 29.867-29.867 364.8 364.8z" />
<glyph unicode="&#xe62a;" glyph-name="24px6" d="M960 776.533l-51.2-51.2c-89.6 128-238.933 209.067-396.8 209.067-251.733-4.267-456.533-192-482.133-443.733 0-21.333 12.8-42.667 38.4-42.667 0 0 4.267 0 4.267 0 21.333 0 38.4 17.067 38.4 38.4 17.067 209.067 192 362.667 401.067 362.667 136.533 0 264.533-72.533 337.067-183.467l-64-64c-12.8-12.8-4.267-34.133 12.8-34.133h174.933c12.8 0 21.333 8.533 21.333 21.333v174.933c0 17.067-21.333 25.6-34.133 12.8zM955.733 448c-21.333 0-42.667-12.8-42.667-38.4-17.067-209.067-192-366.933-401.067-366.933-136.533 0-264.533 72.533-337.067 183.467l64 64c12.8 12.8 4.267 34.133-12.8 34.133h-179.2c-12.8 0-21.333-8.533-21.333-21.333v-174.933c0-17.067 21.333-25.6 34.133-12.8l51.2 51.2c89.6-128 238.933-209.067 396.8-209.067 251.733 0 456.533 187.733 482.133 439.467 4.267 29.867-12.8 46.933-34.133 51.2z" />
<glyph unicode="&#xe62b;" glyph-name="24" d="M268.8 520.533l256-251.733 51.2 51.2-256 251.733-51.2-51.2zM473.6 320l51.2-51.2 256 251.733-51.2 51.2-256-251.733z" />
<glyph unicode="&#xe62c;" glyph-name="16px26" d="M32 928h448v-448h-448v448zM544 928h448v-448h-448v448zM32 416h448v-448h-448v448zM544 416h448v-448h-448v448z" />
<glyph unicode="&#xe62d;" glyph-name="__2_24px" d="M512 60.8c-38.4 16-441.6 182.4-441.6 476.8 0 128 67.2 268.8 220.8 278.4 153.6 12.8 220.8-89.6 220.8-89.6s89.6 102.4 220.8 89.6c153.6-19.2 220.8-153.6 220.8-278.4 0-262.4-374.4-435.2-441.6-476.8zM732.8 729.6c-128 32-185.6-131.2-220.8-131.2-38.4 0-48 153.6-220.8 131.2-105.6-12.8-131.2-128-131.2-208 0-163.2 246.4-304 352-361.6 108.8 57.6 352 188.8 352 361.6 0 70.4-25.6 182.4-131.2 208z" />
<glyph unicode="&#xe62e;" glyph-name="__2_24px2" d="M512 60.8c-38.4 16-441.6 182.4-441.6 476.8 0 128 67.2 268.8 220.8 278.4 153.6 12.8 220.8-89.6 220.8-89.6s89.6 102.4 220.8 89.6c153.6-19.2 220.8-153.6 220.8-278.4 0-262.4-374.4-435.2-441.6-476.8z" />
<glyph unicode="&#xe62f;" glyph-name="_16px" d="M507.733 789.333l-204.8-247.467h162.133v-469.333h85.333v469.333h166.4z" />
<glyph unicode="&#xe630;" glyph-name="16px8" d="M712.533 477.867c-12.8 4.267-21.333 4.267-12.8 21.333 12.8 34.133 12.8 64 0 85.333-25.6 38.4-98.133 38.4-183.467 0 0 0-25.6-12.8-21.333 8.533 12.8 42.667 12.8 76.8-8.533 98.133-46.933 46.933-166.4 0-268.8-106.667-76.8-81.067-123.733-162.133-123.733-234.667 0-140.8 174.933-230.4 345.6-230.4 226.133 0 375.467 140.8 375.467 247.467-4.267 59.733-55.467 98.133-102.4 110.933zM435.2 179.2c-136.533-12.8-256 46.933-264.533 140.8-8.533 89.6 93.867 174.933 230.4 187.733s256-46.933 264.533-140.8c12.8-89.6-89.6-174.933-230.4-187.733zM934.4 593.067c0 140.8-115.2 256-256 256-17.067 0-29.867-12.8-29.867-29.867s12.8-29.867 29.867-29.867c106.667 0 196.267-85.333 196.267-196.267 0-17.067 12.8-29.867 29.867-29.867s29.867 12.8 29.867 29.867c0 0 0 0 0 0zM814.933 597.333c-12.8 64-64 119.467-132.267 132.267-17.067 4.267-29.867-8.533-34.133-21.333-4.267-17.067 8.533-29.867 21.333-34.133 42.667-8.533 76.8-42.667 85.333-85.333 4.267-17.067 17.067-25.6 34.133-21.333 21.333-4.267 29.867 12.8 25.6 29.867zM366.933 418.133c-55.467-12.8-93.867-55.467-81.067-102.4 8.533-46.933 59.733-72.533 115.2-64 55.467 12.8 93.867 55.467 81.067 102.4-8.533 46.933-59.733 76.8-115.2 64z" />
<glyph unicode="&#xe631;" glyph-name="24px8" d="M512 185.6c-28.8 12.8-320 134.4-320 345.6 0 92.8 48 195.2 160 201.6 112 9.6 160-64 160-64s64 73.6 160 64c112-12.8 160-112 160-201.6 0-188.8-272-313.6-320-345.6z" />
<glyph unicode="&#xe632;" glyph-name="QQ16px" d="M934.4 558.933l-260.267 25.6c-21.333 0-25.6 4.267-29.867 21.333l-110.933 247.467c-8.533 21.333-25.6 21.333-38.4 0l-119.467-247.467c-8.533-12.8-12.8-17.067-34.133-17.067l-251.733-29.867c-21.333-4.267-29.867-17.067-12.8-34.133l200.533-183.467c8.533-8.533 8.533-12.8 8.533-25.6l-51.2-268.8c-4.267-21.333 8.533-34.133 29.867-21.333l226.133 132.267c17.067 8.533 29.867 8.533 46.933 0l226.133-132.267c21.333-12.8 34.133-4.267 29.867 21.333l-38.4 213.333c21.333 8.533 46.933 17.067 59.733 29.867h-4.267c-81.067-21.333-192-29.867-294.4-29.867-38.4 0-76.8 0-110.933 4.267v0c-29.867 4.267-59.733 4.267-89.6 8.533-8.533 0 0 8.533 0 8.533l273.067 196.267c0 0 8.533 4.267 0 4.267-110.933 17.067-238.933 21.333-354.133 21.333-4.267 0-4.267 0-8.533 0 76.8 17.067 179.2 29.867 285.867 29.867 64 0 123.733-4.267 179.2-8.533 0 0 29.867-4.267 46.933-8.533 12.8 0 0-8.533 0-8.533l-273.067-192c0 0-4.267-4.267 0-4.267 85.333-12.8 187.733-17.067 281.6-17.067l-4.267 25.6c0 12.8 0 17.067 8.533 25.6l192 179.2c21.333 17.067 17.067 34.133-8.533 34.133z" />
<glyph unicode="&#xe633;" glyph-name="_16px2" d="M507.733 72.533l-204.8 247.467h162.133v469.333h85.333v-469.333h166.4z" />
<glyph unicode="&#xe634;" glyph-name="_24px" d="M977.067-4.267l-8.533-8.533c-55.467-55.467-145.067-55.467-196.267 0l-307.2 307.2c0 0-4.267 0-4.267 0-12.8-4.267-29.867-8.533-42.667-12.8-4.267 0-8.533 0-12.8-4.267-17.067-4.267-34.133-4.267-51.2-4.267-187.733 0-341.333 153.6-341.333 341.333 0 12.8 0 25.6 4.267 38.4 0 8.533 4.267 17.067 4.267 21.333s0 4.267 0 8.533v0c0 34.133 4.267 51.2 21.333 81.067l166.4-166.4c25.6-25.6 64-25.6 89.6 0l64 64c25.6 25.6 25.6 64 0 89.6l-166.4 166.4c42.667 21.333 98.133 34.133 149.333 34.133 187.733 0 341.333-153.6 341.333-341.333 0-17.067 0-34.133-4.267-51.2 0-4.267 0-8.533 0-12.8-4.267-17.067-8.533-34.133-12.8-46.933 0 0 0 0 0 0l307.2-307.2c55.467-51.2 51.2-140.8 0-196.267zM947.2 162.133l-324.267 337.067c4.267 12.8 8.533 21.333 12.8 34.133 0 8.533 4.267 12.8 4.267 21.333 4.267 17.067 4.267 38.4 4.267 59.733 0 166.4-132.267 298.667-298.667 298.667-25.6-4.267-46.933-8.533-72.533-12.8l119.467-119.467c42.667-42.667 42.667-110.933 0-149.333l-59.733-64c-42.667-42.667-110.933-42.667-149.333 0l-123.733 119.467c-4.267-12.8-8.533-25.6-8.533-42.667v0c0-12.8 0-21.333 0-34.133 0-166.4 132.267-298.667 298.667-298.667 17.067 0 34.133 0 46.933 4.267 4.267 0 8.533 0 12.8 4.267 12.8 4.267 25.6 8.533 38.4 12.8 8.533 4.267 12.8 4.267 25.6 8.533l324.267-328.533c38.4-38.4 98.133-38.4 136.533 0l17.067 17.067c34.133 34.133 34.133 93.867-4.267 132.267z" />
<glyph unicode="&#xe635;" glyph-name="_24px2" d="M384 661.333h256v-46.933l-166.4-379.733h-55.467l170.667 379.733h-204.8v46.933zM512-21.333c-260.267 0-469.333 209.067-469.333 469.333s209.067 469.333 469.333 469.333c72.533 0 140.8-17.067 200.533-46.933-8.533-12.8-17.067-21.333-21.333-38.4-55.467 29.867-115.2 42.667-179.2 42.667-234.667 0-426.667-192-426.667-426.667s192-426.667 426.667-426.667 426.667 192 426.667 426.667c0 17.067 0 34.133-4.267 46.933l-110.933 17.067c0 0 72.533 179.2 81.067 192 46.933-72.533 76.8-162.133 76.8-256 0-260.267-209.067-469.333-469.333-469.333z" />
<glyph unicode="&#xe636;" glyph-name="_24px3" d="M631.467 512c21.333 0 38.4-4.267 55.467-8.533 17.067-8.533 29.867-17.067 42.667-29.867s21.333-25.6 29.867-42.667c8.533-17.067 8.533-34.133 8.533-55.467s-4.267-38.4-12.8-55.467c-8.533-17.067-17.067-29.867-29.867-42.667s-29.867-21.333-46.933-29.867-38.4-12.8-55.467-12.8c-34.133 0-59.733 8.533-76.8 21.333s-34.133 34.133-46.933 55.467l51.2 17.067c8.533-17.067 17.067-29.867 29.867-38.4s29.867-12.8 46.933-12.8c12.8 0 25.6 4.267 34.133 8.533 12.8 4.267 21.333 12.8 29.867 21.333s12.8 17.067 21.333 29.867c4.267 12.8 8.533 25.6 8.533 38.4 0 17.067-4.267 29.867-8.533 42.667s-12.8 21.333-21.333 29.867c-8.533 8.533-21.333 12.8-34.133 17.067s-25.6 4.267-42.667 4.267c-12.8 0-29.867-4.267-42.667-8.533-17.067-4.267-29.867-12.8-42.667-17.067v217.6h226.133v-46.933h-174.933v-115.2c8.533 4.267 17.067 8.533 25.6 8.533 8.533 4.267 17.067 4.267 25.6 4.267zM384 234.667h-42.667v384h-42.667l-42.667 42.667h128v-426.667zM512-21.333c-106.667 0-200.533 34.133-281.6 93.867 12.8 4.267 25.6 12.8 38.4 25.6 68.267-46.933 153.6-76.8 243.2-76.8 234.667 0 426.667 192 426.667 426.667s-192 426.667-426.667 426.667-426.667-192-426.667-426.667c0-68.267 17.067-132.267 46.933-192-12.8-8.533-21.333-21.333-29.867-34.133-38.4 68.267-59.733 145.067-59.733 226.133 0 260.267 209.067 469.333 469.333 469.333s469.333-209.067 469.333-469.333-209.067-469.333-469.333-469.333z" />
<glyph unicode="&#xe637;" glyph-name="_24px4" d="M512 21.333c-4.267 0-298.667 277.333-298.667 512s132.267 341.333 298.667 341.333 298.667-106.667 298.667-341.333-294.4-512-298.667-512zM512 832c-140.8 0-256-98.133-256-320 0-200.533 251.733-426.667 256-426.667s256 226.133 256 426.667c0 226.133-115.2 320-256 320zM512 448c-72.533 0-128 55.467-128 128s55.467 128 128 128 128-55.467 128-128-55.467-128-128-128zM512 661.333c-46.933 0-85.333-38.4-85.333-85.333s38.4-85.333 85.333-85.333 85.333 38.4 85.333 85.333-38.4 85.333-85.333 85.333z" />
<glyph unicode="&#xe638;" glyph-name="150_24px" d="M896 469.333v-469.333h-768v469.333h-42.667v213.333h162.133c-55.467 46.933-72.533 115.2-51.2 157.867 29.867 51.2 119.467 55.467 200.533 8.533 72.533-42.667 106.667-115.2 98.133-166.4h34.133c-8.533 51.2 29.867 119.467 98.133 166.4 76.8 46.933 166.4 46.933 192-8.533 25.6-42.667 0-106.667-55.467-157.867h170.667v-213.333h-38.4zM379.733 810.667c-64 34.133-128 38.4-145.067 8.533s12.8-93.867 72.533-128c4.267-4.267 12.8-4.267 17.067-8.533h128c17.067 29.867-12.8 93.867-72.533 128zM469.333 640v0h-341.333v-128h341.333v128zM469.333 469.333h-298.667v-426.667h298.667v426.667zM554.667 42.667h298.667v426.667h-298.667v-426.667zM789.333 819.2c-17.067 29.867-76.8 29.867-136.533-8.533s-93.867-93.867-76.8-123.733c0 0 0 0 0 0h115.2c8.533 4.267 12.8 8.533 21.333 8.533 59.733 34.133 93.867 89.6 76.8 123.733zM896 640h-341.333v-128h341.333v128z" />
<glyph unicode="&#xe639;" glyph-name="_24px5" d="M989.867 482.133l-405.333 405.333v-277.333c-550.4 0-550.4-601.6-550.4-601.6s4.267 349.867 546.133 349.867v0-277.333l409.6 401.067z" />
<glyph unicode="&#xe63a;" glyph-name="uniE63A" d="M896 153.6l-157.867 157.867c0 0 0 0-4.267 0 4.267 8.533 12.8 17.067 17.067 25.6-8.533-4.267-12.8-4.267-21.333-4.267-25.6 0-51.2 17.067-59.733 38.4-46.933-72.533-123.733-123.733-217.6-123.733-140.8 0-256 115.2-256 256s115.2 256 256 256 256-115.2 256-256c0-17.067 0-29.867-4.267-46.933 0 0 0-8.533 4.267-17.067 0 0 0 0 0 0 0-4.267 4.267-8.533 8.533-8.533 8.533-8.533 17.067-17.067 34.133-17.067 8.533 0 17.067 4.267 21.333 8.533 12.8 8.533 17.067 17.067 17.067 21.333 0 8.533 8.533 51.2 8.533 64 0 187.733-153.6 341.333-341.333 341.333s-341.333-153.6-341.333-341.333 153.6-341.333 341.333-341.333c72.533 0 136.533 21.333 192 59.733 0 0 0-4.267 4.267-4.267l157.867-157.867c17.067-17.067 42.667-17.067 59.733 0l29.867 29.867c12.8 17.067 12.8 42.667-4.267 59.733z" />
<glyph unicode="&#xe63b;" glyph-name="uniE63B" d="M704 162.133h-405.333l170.667 170.667v-85.333h234.667c81.067 0 149.333 68.267 149.333 149.333v42.667c0 55.467-29.867 102.4-72.533 128l59.733 59.733c59.733-42.667 98.133-110.933 98.133-187.733v-42.667c0-128-106.667-234.667-234.667-234.667zM554.667 503.467v85.333h-234.667c-81.067 0-149.333-68.267-149.333-149.333v-42.667c0-55.467 29.867-102.4 72.533-128l-59.733-59.733c-59.733 42.667-98.133 110.933-98.133 187.733v42.667c0 128 106.667 234.667 234.667 234.667h413.867l-179.2-170.667z" />
<glyph unicode="&#xe63c;" glyph-name="uniE63C" d="M128 183.467v298.667h768v-298.667h-768zM469.333 396.8h-256v-42.667h256v42.667zM469.333 311.467h-256v-42.667h256v42.667zM725.333 311.467h-42.667v-42.667h42.667v42.667zM810.667 311.467h-42.667v-42.667h42.667v42.667zM128 695.467h768v-128h-768v128z" />
<glyph unicode="&#xe63d;" glyph-name="_24px6" d="M844.8 588.8c-46.933 89.6-128 162.133-226.133 192 25.6 38.4 68.267 59.733 119.467 59.733 81.067 0 149.333-68.267 149.333-149.333 0-38.4-17.067-72.533-42.667-102.4zM844.8 413.867c0-89.6-34.133-174.933-93.867-234.667l85.333-85.333c8.533-8.533 8.533-21.333 0-29.867l-25.6-25.6c-8.533-8.533-21.333-8.533-29.867 0l-89.6 89.6c-55.467-34.133-119.467-55.467-187.733-55.467s-132.267 21.333-187.733 55.467l-89.6-89.6c-8.533-8.533-21.333-8.533-29.867 0l-25.6 29.867c-8.533 8.533-8.533 21.333 0 29.867l85.333 85.333c-59.733 59.733-93.867 145.067-93.867 234.667 0 187.733 153.6 341.333 341.333 341.333s341.333-153.6 341.333-345.6zM503.467 669.867c-140.8 0-256-115.2-256-256s115.2-256 256-256 256 115.2 256 256-115.2 256-256 256zM460.8 413.867v170.667h42.667v-170.667h170.667v-42.667h-213.333v42.667zM345.6 768c-8.533-4.267-17.067-8.533-29.867-17.067 0 0-4.267 0-4.267-4.267-8.533-4.267-17.067-8.533-25.6-12.8 0 0 0 0-4.267-4.267-8.533-8.533-17.067-12.8-25.6-21.333 0 0 0 0 0 0-12.8-8.533-21.333-17.067-29.867-25.6 0 0 0 0 0 0-25.6-25.6-46.933-59.733-64-93.867-25.6 25.6-42.667 64-42.667 102.4 0 81.067 68.267 149.333 149.333 149.333 46.933 0 93.867-25.6 119.467-59.733-12.8-4.267-25.6-8.533-38.4-12.8 0 0 0 0-4.267 0z" />
<glyph unicode="&#xe63e;" glyph-name="_24px7" d="M853.333 520.533h-682.667v85.333h682.667v-85.333zM512 712.533c0 59.733 46.933 106.667 106.667 106.667s106.667-51.2 106.667-106.667-46.933-106.667-106.667-106.667-106.667 46.933-106.667 106.667zM405.333 605.867c-59.733 0-106.667 46.933-106.667 106.667s46.933 106.667 106.667 106.667 106.667-51.2 106.667-106.667-46.933-106.667-106.667-106.667zM298.667 179.2h170.667v298.667h85.333v-298.667h170.667v298.667h85.333v-384h-597.333v384h85.333v-298.667z" />
<glyph unicode="&#xe63f;" glyph-name="F" d="M512 21.333c-234.667 0-426.667 192-426.667 426.667s192 426.667 426.667 426.667 426.667-192 426.667-426.667-192-426.667-426.667-426.667zM512 789.333c-187.733 0-341.333-153.6-341.333-341.333s153.6-341.333 341.333-341.333 341.333 153.6 341.333 341.333-153.6 341.333-341.333 341.333zM469.333 448h170.667v-85.333h-170.667v-128h-85.333v384h298.667v-85.333h-213.333v-85.333z" />
<glyph unicode="&#xe640;" glyph-name="_24px8" d="M371.2 759.467c4.267-8.533 4.267-21.333 8.533-29.867-85.333-38.4-140.8-85.333-149.333-140.8 4.267-46.933 55.467-64 119.467-72.533 21.333 128 59.733 264.533 157.867 290.133 68.267 12.8 115.2-46.933 149.333-110.933-12.8-4.267-21.333-4.267-34.133-8.533-12.8 12.8-29.867 17.067-46.933 8.533-46.933-34.133-64-98.133-72.533-162.133 110.933 17.067 268.8 93.867 268.8 166.4 0 46.933-38.4 59.733-81.067 68.267-4.267 12.8-4.267 29.867-8.533 42.667 132.267 4.267 243.2-64 230.4-149.333-34.133-170.667-264.533-238.933-413.867-268.8 0-132.267 21.333-209.067 72.533-221.867 25.6 0 46.933 34.133 68.267 149.333 21.333 4.267 38.4 8.533 59.733 17.067-21.333-179.2-93.867-281.6-166.4-285.867-68.267-4.267-123.733 59.733-157.867 162.133-17.067 46.933-25.6 106.667-29.867 170.667-119.467 12.8-226.133 42.667-230.4 136.533-4.267 89.6 110.933 192 256 238.933v0z" />
<glyph unicode="&#xe641;" glyph-name="uniE641" horiz-adv-x="808" d="M700.632-64h-592.842c-59.554 0-107.789 48.236-107.789 107.789v808.421c0 59.554 48.236 107.789 107.789 107.789h485.053l215.579-215.579v-700.632c0-59.554-48.236-107.789-107.789-107.789zM646.737 582.737c0 29.75-24.145 53.895-53.895 53.895h-377.263c-29.75 0-53.895-24.145-53.895-53.895v-485.053c0-29.75 24.145-53.895 53.895-53.895h377.263c29.75 0 53.895 24.145 53.895 53.895v485.053zM538.947 97.684h-269.474c-29.75 0-53.895 24.145-53.895 53.895v377.263c0 29.75 24.145 53.895 53.895 53.895h269.474c29.75 0 53.895-24.145 53.895-53.895v-377.263c0-29.75-24.145-53.895-53.895-53.895zM323.368 232.421c0 14.875-12.072 26.947-26.947 26.947s-26.947-12.072-26.947-26.947v-53.895c0-14.875 12.072-26.947 26.947-26.947s26.947 12.072 26.947 26.947v53.895zM431.158 232.421c0 14.875-12.072 26.947-26.947 26.947s-26.947-12.072-26.947-26.947v-53.895c0-14.875 12.072-26.947 26.947-26.947s26.947 12.072 26.947 26.947v53.895zM538.947 232.421c0 14.875-12.072 26.947-26.947 26.947s-26.947-12.072-26.947-26.947v-53.895c0-14.875 12.072-26.947 26.947-26.947s26.947 12.072 26.947 26.947v53.895z" />
<glyph unicode="&#xe900;" glyph-name="uniE900" d="M878.933 341.333l-102.4 106.667c0 0 55.467 0 59.733 0v0c0 174.933-136.533 315.733-307.2 315.733-128 0-238.933-81.067-281.6-196.267l-59.733 59.733c64 128 192 217.6 341.333 217.6 213.333 0 384-179.2 384-396.8h68.267l-102.4-106.667zM426.667 217.6c-8.533 0-12.8 8.533-12.8 17.067v418.133c0 8.533 4.267 17.067 12.8 17.067h213.333c8.533 0 12.8-8.533 12.8-17.067v-418.133c0-8.533-4.267-17.067-12.8-17.067h-213.333zM635.733 605.867h-204.8v-315.733h204.8c0 0 0 315.733 0 315.733zM230.4 452.267c0 0 0-4.267 0 0 0-174.933 136.533-320 307.2-320 128 0 238.933 81.067 281.6 196.267l59.733-59.733c-64-128-192-217.6-341.333-217.6-213.333 0-384 179.2-384 396.8v0h-64l102.4 106.667 102.4-106.667c-4.267 4.267-59.733 4.267-64 4.267z" />
<glyph unicode="&#xe901;" glyph-name="服务月" horiz-adv-x="1053" d="M895.508-64h-737.516c0 0-0.001 0-0.001 0-87.026 0-157.619 70.362-157.991 157.301v599.882c1.11 86.407 71.415 156.026 157.98 156.026 0.004 0 0.009 0 0.013 0h737.515c87.257 0 157.992-70.736 157.992-157.992v-599.846c-1.475-86.121-71.636-155.37-157.971-155.37-0.008 0-0.015 0-0.023 0zM157.992 783.652c-0.006 0-0.014 0-0.021 0-50.359 0-91.312-40.271-92.413-90.366l-0.002-599.949c0-51.051 41.385-92.435 92.435-92.435h737.516c51.051 0 92.435 41.385 92.435 92.435v599.846c-1.102 50.197-42.055 90.469-92.414 90.469-0.007 0-0.015 0-0.022 0h-737.515zM262.228 676.794c-18.103 0-32.778 14.675-32.778 32.778v217.649c0 18.103 14.675 32.778 32.778 32.778s32.778-14.675 32.778-32.778v-217.649c0-18.103-14.675-32.778-32.778-32.778zM790.617 676.794c-18.103 0-32.778 14.675-32.778 32.778v217.649c0 18.103 14.675 32.778 32.778 32.778s32.778-14.675 32.778-32.778v-217.649c0-18.103-14.675-32.778-32.778-32.778zM304.184 77.603l-25.567 25.567-28.19 24.912c30.745 28.080 53.601 64.307 65.173 105.269 8.738 41.594 13.52 87.565 13.52 134.653 0 14.998-0.485 29.882-1.441 44.638l0.104 197.939h400.553v-423.498c0.561-3.645 0.881-7.85 0.881-12.13 0-46.344-37.569-83.913-83.913-83.913-2.618 0-5.209 0.12-7.766 0.355-19.994-0.024-52.117-0.024-97.351-0.024 0 9.178-4.589 24.912-9.178 46.545-1.916 5.293-4.126 9.834-6.745 14.097q34.934-0.331 88.691-0.331c3.582-1.165 7.703-1.837 11.982-1.837 22.086 0 39.99 17.904 39.99 39.99 0 1.339-0.066 2.663-0.194 3.969l0.013 65.392h-279.273c-10.512-70.001-39.482-131.85-81.749-182.153zM393.342 405.388q0-51.134 0-93.091h274.684v93.091h-274.684zM393.342 552.236v-90.469h272.061v90.469h-272.061z" />
<glyph unicode="&#xe902;" glyph-name="选购手机" d="M392.533 298.667h-72.533v405.333h264.533c0 0 0-8.533 0-8.533h21.333v68.267c0 12.8-4.267 21.333-17.067 21.333h-273.067c-12.8 0-17.067-8.533-17.067-21.333v-537.6c0-12.8 4.267-21.333 17.067-21.333h76.8v93.867zM725.333 657.067h-273.067c-12.8 0-17.067-12.8-17.067-21.333v-537.6c0-12.8 4.267-21.333 17.067-21.333h273.067c12.8 0 17.067 12.8 17.067 21.333v537.6c0 8.533-8.533 21.333-17.067 21.333zM618.667 102.4h-64c-12.8 0-21.333 8.533-21.333 21.333s8.533 21.333 21.333 21.333h64c12.8 0 21.333-8.533 21.333-21.333s-8.533-21.333-21.333-21.333zM721.067 166.4h-264.533v409.6h264.533v-409.6z" />
<glyph unicode="&#xe903;" glyph-name="一元活动" d="M512 960c-0.966 0.007-2.108 0.010-3.251 0.010-280.98 0-508.759-227.779-508.759-508.759 0-1.143 0.004-2.285 0.011-3.426-0.008-0.79-0.011-1.933-0.011-3.076 0-280.98 227.779-508.759 508.759-508.759 1.143 0 2.285 0.004 3.426 0.011 0.79-0.008 1.933-0.011 3.076-0.011 280.98 0 508.759 227.779 508.759 508.759 0 1.143-0.004 2.285-0.011 3.426 0.008 0.79 0.011 1.933 0.011 3.076 0 280.98-227.779 508.759-508.759 508.759-1.143 0-2.285-0.004-3.426-0.011zM512 20.253c-236.238 0-427.747 191.509-427.747 427.747s191.509 427.747 427.747 427.747c236.238 0 427.747-191.509 427.747-427.747 0-0.193 0-0.421 0-0.649 0-235.88-191.219-427.099-427.099-427.099-0.228 0-0.456 0-0.684 0.001zM512 822.603c-1.162 0.013-2.535 0.021-3.909 0.021-204.74 0-370.714-165.974-370.714-370.714 0-1.374 0.007-2.747 0.022-4.118-0.002-206.678 167.713-374.394 374.601-374.394s374.603 167.715 374.603 374.603c0.013 1.162 0.021 2.535 0.021 3.909 0 204.74-165.974 370.714-370.714 370.714-1.374 0-2.747-0.007-4.118-0.022zM512 138.208c-170.945 0.368-309.424 138.847-309.792 309.757-0.011 1.004-0.017 2.148-0.017 3.293 0 169.304 137.248 306.552 306.552 306.552 1.145 0 2.289-0.006 3.432-0.019 0.794 0.013 1.938 0.019 3.084 0.019 169.304 0 306.552-137.248 306.552-306.552 0-1.145-0.006-2.289-0.019-3.432-0.366-170.771-138.845-309.25-309.756-309.618zM447.19 619.747v-84.901h41.478v-277.387h79.716v407.008h-73.884c-6.734-22.28-24.546-39.232-46.869-44.629z" />
<glyph unicode="&#xe904;" glyph-name="以旧换新" d="M584.96 154.24c0.006 0 0.013 0 0.020 0 49.87 0 90.424 39.888 91.498 89.5l0.002 384.1c0.023 0.763 0.036 1.66 0.036 2.56 0 50.545-40.975 91.52-91.52 91.52-0.013 0-0.025 0-0.038 0h-165.118c-0.011 0-0.023 0-0.036 0-50.545 0-91.52-40.975-91.52-91.52 0-0.9 0.013-1.797 0.039-2.691l-0.003-383.869c1.076-49.712 41.63-89.6 91.5-89.6 0.007 0 0.014 0 0.021 0h165.119zM612.48 293.12h-220.16v256h220.16v-256zM469.76 235.52c0.934 4.771 5.082 8.322 10.059 8.322 0.064 0 0.127-0.001 0.191-0.002h44.79c0.762 0.203 1.637 0.32 2.54 0.32 5.655 0 10.24-4.585 10.24-10.24s-4.585-10.24-10.24-10.24c-0.902 0-1.778 0.117-2.611 0.336l-44.729-0.016c-0.054-0.001-0.118-0.002-0.182-0.002-5.655 0-10.24 4.585-10.24 10.24 0 0.68 0.066 1.344 0.193 1.987zM419.84 657.92h165.12c0.035 0 0.077 0 0.119 0 15.199 0 27.52-12.321 27.52-27.52 0-0.901-0.043-1.793-0.128-2.672l0.009-13.968h-220.16v14.080c-0.076 0.767-0.119 1.659-0.119 2.56 0 15.199 12.321 27.52 27.52 27.52 0.042 0 0.084 0 0.126 0zM912 300.8c-3.573 1.498-7.725 2.368-12.080 2.368-13.214 0-24.558-8.010-29.441-19.439-60.083-148.777-203.115-251.698-370.186-251.698-215.567 0-391.114 171.344-397.878 385.268l38.384 0.622-70.4 115.2-70.4-115.2h40.32c9.158-247.984 212.4-445.542 461.784-445.542 192.241 0 357.063 117.395 426.687 284.407 2.435 6.412 3.192 10.296 3.192 14.358 0 13.342-8.165 24.776-19.77 29.58zM967.040 453.76c-11.47 246.059-213.749 441.209-461.608 441.209-191.81 0-356.324-116.87-426.217-283.285-2.645-6.64-3.523-10.819-3.523-15.204 0-17.755 14.393-32.148 32.148-32.148 13.371 0 24.835 8.162 29.681 19.776 59.941 149.080 203.124 252.263 370.407 252.263 213.512 0 387.764-168.094 397.638-379.164l-43.487-0.887 72.96-115.84 69.76 115.84h-37.76z" />
<glyph unicode="&#xe905;" glyph-name="企业团购" d="M946.56 655.36h-160.64c41.481 30.496 68.102 79.108 68.102 133.937 0 20.857-3.852 40.814-10.884 59.199-18.183 34.863-50.525 61.561-89.492 72.229-16.925 4.678-35.206 7.232-54.083 7.232-40.347 0-77.969-11.667-109.676-31.812-46.502-31.039-81.91-77.228-99.164-131.507-18.219 54.279-53.627 100.468-100.056 131.432-31.738 20.249-69.327 31.937-109.646 31.937-18.916 0-37.232-2.573-54.616-7.387-38.337-10.27-70.626-36.498-89.069-71.205-7.026-18.024-10.878-37.981-10.878-58.838 0-54.829 26.621-103.441 67.643-133.615l-139.061-0.322c-30.398 0-55.040-24.642-55.040-55.040v-38.4c-0.009-0.381-0.015-0.83-0.015-1.28 0-30.398 24.642-55.040 55.040-55.040 0.005 0 0.010 0 0.016 0h891.519c30.398 0 55.040 24.642 55.040 55.040v38.4c0 30.398-24.642 55.040-55.040 55.040zM626.56 842.24c21.459 13.597 47.587 21.668 75.601 21.668 12.476 0 24.578-1.601 36.112-4.608 21.415-5.184 39.794-19.379 50.639-38.423 22.608-45.197-15.152-111.117-82.352-144.397-17.865-6.202-38.455-9.783-59.883-9.783-38.455 0-74.216 11.536-104.011 31.336 6.014 58.826 36.009 110.169 80.196 143.843zM197.12 820.48c10.644 19.068 28.28 33.156 49.355 38.908 11.093 3.32 23.199 5.186 35.73 5.251 28.236-0.207 54.51-8.277 76.825-22.124 44.593-33.841 74.897-85.717 79.958-144.801-29.3-19.892-65.227-31.274-103.812-31.274-21.209 0-41.616 3.439-60.691 9.79-65.205 33.529-102.965 99.449-80.565 144.249zM490.24 656.64v0 0zM932.48 419.84c-17.673 0-32-14.327-32-32v-346.24c0.044-0.657 0.069-1.424 0.069-2.198 0-17.885-13.339-32.655-30.612-34.904l-332.977-0.019v376.32c-0.327 17.421-14.526 31.418-31.995 31.418-0.677 0-1.35-0.021-2.017-0.063l-10.789 0.005c-17.673 0-32-14.327-32-32v-376.32h-320c-17.45 2.267-30.789 17.037-30.789 34.922 0 0.773 0.025 1.54 0.074 2.301l-0.005 346.776c0 17.673-14.327 32-32 32s-32-14.327-32-32v-346.24c-0.022-0.784-0.035-1.707-0.035-2.633 0-53.095 41.984-96.384 94.565-98.481l729.79-0.006c52.771 2.102 94.755 45.391 94.755 98.487 0 0.926-0.013 1.849-0.038 2.769l0.003 346.104c0 17.673-14.327 32-32 32z" />
<glyph unicode="&#xe906;" glyph-name="小米移动" horiz-adv-x="808" d="M790.78 718.497c-65.535 79.263-133.903 150.458-207.173 216.307-17.117 15.084-37.305 23.301-59.412 23.301-0.591 0-1.181-0.006-1.769-0.018l-403.904 0.001c-0.573 0.010-1.249 0.016-1.927 0.016-63.735 0-115.528-51.133-116.593-114.614l-0.001-792.792c2.456-62.461 53.686-112.166 116.525-112.166 0.702 0 1.403 0.006 2.102 0.019l573.386-0.001c0.573-0.010 1.249-0.016 1.927-0.016 63.735 0 115.528 51.133 116.593 114.614l0.001 611.186c-0.736 20.594-8.056 39.346-19.903 54.36zM744.264 50.698c-1.039-28.391-24.305-51.013-52.855-51.013-0.684 0-1.365 0.013-2.043 0.039l-573.393-0.003c-0.58-0.023-1.261-0.036-1.945-0.036-28.55 0-51.816 22.622-52.853 50.918l-0.003 795.335c2.272 27.319 25.006 48.631 52.717 48.631 1.631 0 3.244-0.074 4.837-0.218l403.787 0.015c0.132 0.003 0.287 0.004 0.443 0.004 6.243 0 11.919-2.427 16.137-6.388 71.862-64.298 137.124-132.386 196.888-205.16 6.088-7.946 8.233-13.919 8.282-20.39v-613.647zM139.549 801.334h63.721v-224.299h-63.721v224.299zM266.992 801.334h63.721v-224.299h-63.721v224.299zM394.434 801.334h63.721v-224.299h-63.721v224.299zM130.629 327.248h176.508v-102.591h-176.508v102.591zM509.77 327.248h167.587v-102.591h-167.587v102.591zM612.361 471.258h-102.591v-105.14h167.587v40.782c0.002 0.193 0.003 0.421 0.003 0.65 0 35.192-28.529 63.721-63.721 63.721-0.449 0-0.897-0.005-1.345-0.014zM345.369 471.258h126.168v-389.337h-126.168v389.337zM509.77 81.284h103.228c35.192 0 63.721 28.529 63.721 63.721v42.056h-166.95v-105.14zM130.629 406.9v-40.782h176.508v105.14h-112.149c-0.19 0.002-0.415 0.003-0.64 0.003-35.192 0-63.721-28.529-63.721-63.721 0-0.225 0.001-0.45 0.003-0.675zM130.629 145.643c0-35.192 28.529-63.721 63.721-63.721h112.787v105.14h-176.508v-40.782z" />
<glyph unicode="&#xe907;" glyph-name="话费充值" d="M878.080 864h-733.44c-0.19 0.001-0.415 0.001-0.64 0.001-79.882 0-144.64-64.758-144.64-144.64 0-0.001 0-0.001 0-0.002v-538.24c0-79.882 64.758-144.64 144.64-144.64h734.080c0.19-0.001 0.415-0.001 0.64-0.001 79.882 0 144.64 64.758 144.64 144.64 0 0.001 0 0.001 0 0.002v538.24c0 0 0 0.001 0 0.001 0 79.882-64.758 144.64-144.64 144.64-0.225 0-0.45-0.001-0.675-0.002zM145.28 800h732.8c0.19 0.002 0.415 0.003 0.64 0.003 44.536 0 80.64-36.104 80.64-80.64 0-0.001 0-0.002 0-0.003v-64h-896v64c0 0.001 0 0.002 0 0.003 0 44.536 36.104 80.64 80.64 80.64 0.225 0 0.45-0.001 0.674-0.003zM878.080 100.48h-733.44c-0.19-0.002-0.415-0.003-0.64-0.003-44.536 0-80.64 36.104-80.64 80.64 0 0.001 0 0.002 0 0.003v403.2h896v-403.2c0-0.001 0-0.002 0-0.003 0-44.536-36.104-80.64-80.64-80.64-0.225 0-0.45 0.001-0.674 0.003zM135.68 459.52h391.040v-68.48h-391.040v68.48zM135.68 317.44h391.040v-68.48h-391.040v68.48zM678.4 317.44h65.92v-68.48h-65.92v68.48zM810.24 317.44h65.92v-68.48h-65.92v68.48z" />
<glyph unicode="&#xe908;" glyph-name="挑选手机" horiz-adv-x="742" d="M634.307 960h-307.070c-59.264-1.416-106.765-49.794-106.765-109.267 0-1.383 0.026-2.76 0.077-4.131l-0.006-69.413h-130.114c-0.775 0.025-1.687 0.039-2.602 0.039-48.506 0-87.827-39.322-87.827-87.827 0-0.014 0-0.027 0-0.041v-665.533c0-0.001 0-0.002 0-0.002 0-48.277 38.952-87.456 87.142-87.825h339.633c48.506 0 87.827 39.322 87.827 87.827v48.142h120.356c59.24 1.445 106.712 49.812 106.712 109.266 0 0.697-0.007 1.392-0.020 2.086l0.002 663.479c0.045 1.169 0.070 2.541 0.070 3.92 0 59.701-47.867 108.222-107.316 109.278zM256.976 36.188c-21.199 0-38.384 17.185-38.384 38.384s17.185 38.384 38.384 38.384c21.199 0 38.384-17.185 38.384-38.384-0.366-20.917-17.408-37.733-38.378-37.733-0.002 0-0.004 0-0.006 0zM452.147 166.302h-387.090v505.494h383.837v-506.145zM517.205 286.658v402.704c0 0.011 0 0.025 0 0.039 0 48.506-39.322 87.827-87.827 87.827-0.915 0-1.827-0.014-2.735-0.042l-141.041 0.003v46.841h390.343v-538.023h-161.992z" />
<glyph unicode="&#xe909;" glyph-name="like" d="M323.584 26.112h-235.52c-22.528 0-40.96 18.432-40.96 40.96v501.76c0 22.528 18.432 40.96 40.96 40.96h233.472c22.528 0 40.96-18.432 40.96-40.96v-501.76c2.048-22.528-16.384-40.96-38.912-40.96zM319.488 89.6v456.704c0 10.24-8.192 20.48-20.48 20.48h-186.368c-12.288 0-20.48-10.24-20.48-20.48v-456.704c0-10.24 8.192-20.48 20.48-20.48h186.368c12.288 0 20.48 8.192 20.48 20.48zM946.176 609.792h-215.040c0-2.048 0-4.096-2.048-8.192 16.384 83.968 4.096 172.032-26.624 241.664-51.2 120.832-225.28 106.496-208.896-24.576 14.336-104.448-65.536-190.464-104.448-210.944h-12.288c-2.048 0-6.144 0-8.192 0 0 0 0 0 0 0s0 0 0 0 0 0 0 0 0 0 0 0c-30.72-4.096-53.248-28.672-53.248-61.44v-460.8c0-32.768 26.624-61.44 61.44-61.44h483.328c22.528 0 40.96 18.432 40.96 40.96v139.264h10.24c22.528 0 40.96 18.432 40.96 40.96v141.312c20.48 2.048 36.864 20.48 36.864 40.96v141.312c-2.048 22.528-20.48 40.96-43.008 40.96zM385.024 605.696c-2.048 0-4.096 0-4.096 0 2.048 0 2.048 0 4.096 0zM393.216 609.792c-2.048-2.048-4.096-2.048-6.144-2.048 2.048 0 4.096 0 6.144 2.048zM378.88 605.696c-2.048 0-2.048 0-2.048 0s0 0 2.048 0zM946.176 448c0-10.24-10.24-20.48-20.48-20.48h-22.528v-157.696c0-10.24-10.24-20.48-20.48-20.48h-24.576v-161.792c0-10.24-10.24-20.48-20.48-20.48h-452.608c-10.24 0-20.48 10.24-20.48 20.48v458.752c0 8.192 6.144 16.384 12.288 18.432 0 0 43.008 2.048 43.008 2.048 28.672-4.096 137.216 149.504 120.832 243.712-16.384 90.112 96.256 92.16 133.12 8.192 32.768-75.776 36.864-182.272-2.048-253.952h253.952c10.24 0 20.48-10.24 20.48-20.48v-96.256zM372.736 601.6c0 0 0 0 0 0s0 0 0 0z" />
<glyph unicode="&#xe90a;" glyph-name="点赞icon点亮" d="M323.584 26.112h-235.52c-22.528 0-40.96 18.432-40.96 40.96v501.76c0 22.528 18.432 40.96 40.96 40.96h233.472c22.528 0 40.96-18.432 40.96-40.96v-501.76c2.048-22.528-16.384-40.96-38.912-40.96zM946.176 609.792h-215.040c0-2.048 0-4.096-2.048-8.192 16.384 83.968 4.096 172.032-26.624 241.664-51.2 120.832-225.28 106.496-208.896-24.576 14.336-104.448-65.536-190.464-104.448-210.944h-12.288c-2.048 0-6.144 0-8.192 0 0 0 0 0 0 0s0 0 0 0 0 0 0 0 0 0 0 0c-30.72-4.096-53.248-28.672-53.248-61.44v-460.8c0-32.768 26.624-61.44 61.44-61.44h483.328c22.528 0 40.96 18.432 40.96 40.96v139.264h10.24c22.528 0 40.96 18.432 40.96 40.96v141.312c20.48 2.048 36.864 20.48 36.864 40.96v141.312c-2.048 22.528-20.48 40.96-43.008 40.96zM385.024 605.696c-2.048 0-4.096 0-4.096 0 2.048 0 2.048 0 4.096 0zM393.216 609.792c-2.048-2.048-4.096-2.048-6.144-2.048 2.048 0 4.096 0 6.144 2.048zM378.88 605.696c-2.048 0-2.048 0-2.048 0s0 0 2.048 0zM946.176 448c0-10.24-10.24-20.48-20.48-20.48h-22.528v-157.696c0-10.24-10.24-20.48-20.48-20.48h-24.576v-161.792c0-10.24-10.24-20.48-20.48-20.48h-452.608c-10.24 0-20.48 10.24-20.48 20.48v458.752c0 8.192 6.144 16.384 12.288 18.432 0 0 43.008 2.048 43.008 2.048 28.672-4.096 137.216 149.504 120.832 243.712-16.384 90.112 96.256 92.16 133.12 8.192 32.768-75.776 36.864-182.272-2.048-253.952h253.952c10.24 0 20.48-10.24 20.48-20.48v-96.256zM372.736 601.6c0 0 0 0 0 0s0 0 0 0z" />
<glyph unicode="&#xe90b;" glyph-name="地址icon" d="M512 906.752c-192.512 0-348.16-155.648-348.16-348.16 0-77.824 26.624-151.552 69.632-208.896 0 0 0 0 0 0l270.336-352.256c4.096-4.096 10.24-4.096 14.336 0l270.336 352.256c0 0 0 0 0 0 45.056 57.344 71.68 129.024 71.68 208.896 0 192.512-155.648 348.16-348.16 348.16zM747.52 361.984l-229.376-317.44c-2.048-4.096-8.192-4.096-12.288 0l-229.376 317.44c-45.056 53.248-71.68 120.832-71.68 196.608 0 169.984 137.216 307.2 307.2 307.2s307.2-137.216 307.2-307.2c0-75.776-26.624-143.36-71.68-196.608zM634.88 558.592c0-67.865-55.015-122.88-122.88-122.88s-122.88 55.015-122.88 122.88c0 67.865 55.015 122.88 122.88 122.88s122.88-55.015 122.88-122.88z" />
<glyph unicode="&#xe90c;" glyph-name="叹号" d="M511.795 25.242c232.806 0 422.451 189.594 422.451 422.451s-189.594 422.451-422.451 422.451c-232.858 0-422.451-189.594-422.451-422.451 0-232.806 189.594-422.451 422.451-422.451zM511.795-49.306c-274.586 0-496.998 222.413-496.998 496.947 0 274.586 222.413 496.998 496.998 496.998s496.947-222.413 496.947-496.998c0.051-274.534-222.362-496.947-496.947-496.947v0 0zM511.795 199.219c-27.341 0-49.715 22.374-49.715 49.715s22.374 49.715 49.715 49.715c27.597 0 49.715-22.374 49.715-49.715 0-27.392-22.118-49.715-49.715-49.715v0 0zM514.765 348.314h-6.195c-25.6 0-46.49 20.89-46.49 46.694v254.72c0 25.6 20.89 46.49 46.49 46.49h6.195c25.856 0 46.694-20.89 46.694-46.49v-254.72c0.051-25.856-20.838-46.694-46.694-46.694v0 0z" />
<glyph unicode="&#xe607d;" glyph-name="16px4" d="M204.8 339.2c0 12.8 6.4 25.6 12.8 32 6.4 12.8 19.2 25.6 38.4 38.4 0 0-6.4 0-12.8 0s-64 25.6-19.2 115.2v6.4c32 19.2 70.4 32 115.2 44.8-6.4 25.6-12.8 51.2-25.6 76.8l-12.8 12.8c-12.8 32-25.6 57.6-25.6 70.4 0 51.2 32 96 83.2 96 0 0 12.8 0 19.2-6.4 6.4-12.8 6.4-57.6 19.2-102.4 12.8-38.4 140.8-153.6 140.8-153.6 12.8-6.4 32-12.8 51.2-19.2 6.4-6.4 19.2-6.4 32-12.8 89.6-44.8 166.4-64 224-64 19.2-25.6 25.6-51.2 38.4-76.8 6.4-25.6 12.8-57.6 12.8-89.6 0-38.4-6.4-64-12.8-89.6s-19.2-44.8-32-64c-12.8-6.4-38.4-6.4-70.4-6.4s-51.2-6.4-64-12.8c0 0-25.6-12.8-64-32-44.8-32-89.6-38.4-128-38.4s-76.8 0-115.2 12.8c-38.4 6.4-70.4 19.2-89.6 25.6-6.4 6.4-12.8 12.8-19.2 19.2s-6.4 19.2-6.4 25.6c0 6.4 0 6.4 0 12.8s0 12.8 0 19.2c-19.2 6.4-32 12.8-38.4 19.2s-12.8 19.2-12.8 32c0 6.4 0 12.8 6.4 19.2 0 6.4 6.4 19.2 19.2 25.6-19.2 6.4-38.4 12.8-44.8 25.6-12.8 12.8-19.2 25.6-19.2 38.4z" />
</font>
</defs>
</svg>
